<svg xmlns="http://www.w3.org/2000/svg" viewBox="0 0 31.98 40.22"><title>资源 25</title><g id="图层_2" data-name="图层 2"><g id="图层_1-2" data-name="图层 1"><path d="M30.59,8.13H1.38A1.38,1.38,0,0,1,0,6.75V6.68A1.38,1.38,0,0,1,1.38,5.3H30.59A1.38,1.38,0,0,1,32,6.68v.07A1.38,1.38,0,0,1,30.59,8.13ZM12,0H9.86a.5.5,0,0,0-.5.5V5.3H12Zm8,0h2.15a.5.5,0,0,1,.5.5V5.3H20Zm0,2.65H12V0h8Z"/><path d="M23,40.22H8.94A3,3,0,0,1,6,37.89L.76,13.33A3,3,0,0,1,3.67,9.78H28.31a2.94,2.94,0,0,1,2.9,3.55L25.94,37.89A3,3,0,0,1,23,40.22Z"/></g></g></svg>