<svg xmlns="http://www.w3.org/2000/svg" xmlns:xlink="http://www.w3.org/1999/xlink" viewBox="0 0 57 477"><defs><style>.cls-1,.cls-4{fill:none;}.cls-2{clip-path:url(#clip-path);}.cls-3{fill:#cedfea;}.cls-4{stroke:#000;stroke-miterlimit:10;}.cls-5{fill:#a1cbe2;}.cls-6{fill:#5ba5b2;}.cls-7{fill:#8dbecc;}.cls-8{fill:#3f97af;}.cls-9{fill:#23879e;}.cls-10{fill:#116a7f;}.cls-11{fill:#09505b;}.cls-12{fill:#033f42;}.cls-13{fill:#6dafc6;}.cls-14{fill:#03253d;}.cls-15{opacity:0.8;}.cls-16{clip-path:url(#clip-path-2);}</style><clipPath id="clip-path" transform="translate(-1152.5 -154.5)"><rect class="cls-1" width="1366" height="768"/></clipPath><clipPath id="clip-path-2" transform="translate(-1152.5 -154.5)"><rect class="cls-1" x="1164" y="377" width="38.4" height="30.93"/></clipPath></defs><title>资源 1</title><g id="图层_2" data-name="图层 2"><g id="图层_1-2" data-name="图层 1"><g class="cls-2"><rect class="cls-3" x="0.5" y="0.5" width="56" height="43.27"/><rect class="cls-4" x="0.5" y="0.5" width="56" height="43.27"/><rect class="cls-5" x="0.5" y="43.77" width="56" height="43.27"/><rect class="cls-4" x="0.5" y="43.77" width="56" height="43.27"/><rect class="cls-6" x="0.5" y="173.04" width="56" height="43.27"/><rect class="cls-4" x="0.5" y="173.04" width="56" height="43.27"/><rect class="cls-7" x="0.5" y="86.32" width="56" height="43.27"/><rect class="cls-4" x="0.5" y="86.32" width="56" height="43.27"/><rect class="cls-8" x="0.5" y="216.59" width="56" height="43.27"/><rect class="cls-4" x="0.5" y="216.59" width="56" height="43.27"/><rect class="cls-9" x="0.5" y="259.86" width="56" height="43.27"/><rect class="cls-4" x="0.5" y="259.86" width="56" height="43.27"/><rect class="cls-10" x="0.5" y="303.14" width="56" height="43.27"/><rect class="cls-4" x="0.5" y="303.14" width="56" height="43.27"/><rect class="cls-11" x="0.5" y="346.41" width="56" height="43.27"/><rect class="cls-4" x="0.5" y="346.41" width="56" height="43.27"/><rect class="cls-12" x="0.5" y="389.68" width="56" height="43.27"/><rect class="cls-4" x="0.5" y="389.68" width="56" height="43.27"/><rect class="cls-13" x="0.5" y="129.95" width="56" height="43.27"/><rect class="cls-4" x="0.5" y="129.95" width="56" height="43.27"/><rect class="cls-14" x="0.5" y="433.23" width="56" height="43.27"/><rect class="cls-4" x="0.5" y="433.23" width="56" height="43.27"/><g class="cls-15"><g class="cls-16"><polygon points="44.03 222.5 24.83 241.7 17.37 234.24 11.5 240.1 24.83 253.44 49.9 228.37 44.03 222.5"/></g></g></g></g></g></svg>