<svg xmlns="http://www.w3.org/2000/svg" viewBox="0 0 37.93 45.45"><title>资源 33</title><g id="图层_2" data-name="图层 2"><g id="图层_1-2" data-name="图层 1"><path d="M1,22.86,19.69,6.25,37.23,26A2.82,2.82,0,0,1,37,30L20.34,44.75a2.8,2.8,0,0,1-4-.24L.71,26.82A2.79,2.79,0,0,1,1,22.86ZM23.71,10.78,30.34,4.9a1.47,1.47,0,0,0,.13-2.07L28.39.49A1.47,1.47,0,0,0,26.32.37L19.69,6.25ZM8.52,26.71l21.19,4a1.14,1.14,0,0,0,1-.27l1.77-1.57a1.14,1.14,0,0,0,.1-1.61L21.25,14.49a1.13,1.13,0,0,0-1.61-.1L8,24.73A1.14,1.14,0,0,0,8.52,26.71Z"/><path d="M4,42.78H.75a.46.46,0,0,1-.43-.61L2.39,36.4h0l2.06,5.77A.46.46,0,0,1,4,42.78Z"/><circle cx="2.39" cy="42.78" r="2.17"/></g></g></svg>