<svg xmlns="http://www.w3.org/2000/svg" viewBox="0 0 38 45.06"><title>资源 7</title><g id="图层_2" data-name="图层 2"><g id="图层_1-2" data-name="图层 1"><path d="M38,23.27c0-.9-.91-1.59-2.1-1.59s-2.09.69-2.09,1.59c0,6.21-6.64,11.24-14.81,11.24s-14.81-5-14.81-11.24c0-.9-.91-1.59-2.1-1.59S0,22.37,0,23.27c0,7.37,7.26,13.58,16.9,14.37v4.24H9.29c-1.19,0-2.1.69-2.1,1.59s.91,1.59,2.1,1.59H28.71c1.19,0,2.09-.69,2.09-1.59s-.9-1.59-2.09-1.59H21.09V37.64c9.64-.79,16.91-7,16.91-14.37"/><path d="M19,0C12.57,0,7.33,4,7.33,8.85V23.22c0,4.93,5.24,8.85,11.67,8.91s11.66-4,11.66-8.86V8.85C30.66,4,25.43,0,19,0"/></g></g></svg>