<svg xmlns="http://www.w3.org/2000/svg" viewBox="0 0 40.9 35.6"><title>资源 17</title><g id="图层_2" data-name="图层 2"><g id="图层_1-2" data-name="图层 1"><path d="M39.89,1A3.42,3.42,0,0,0,37.5,0h0a3.41,3.41,0,0,0-2.38,1L15.89,19.36a8.08,8.08,0,0,1,4.95,3.78A9.15,9.15,0,0,1,21.68,25L40,5.84a3.49,3.49,0,0,0,.95-2.39,3.43,3.43,0,0,0-1-2.44"/><path d="M14.11,21.51h-.29A7.82,7.82,0,0,0,9.28,23C7.7,24.16,7.07,25.8,5.91,27.29A10.83,10.83,0,0,1,0,30.69c1.29,3.43,6.1,4.83,9.25,4.91h.34c3.56,0,7.76-1.33,9.48-4.84,1.89-3.87-.44-9.06-5-9.25"/></g></g></svg>