<svg xmlns="http://www.w3.org/2000/svg" viewBox="0 0 46.79 43.68"><title>资源 8</title><g id="图层_2" data-name="图层 2"><g id="图层_1-2" data-name="图层 1"><path d="M27.19.15a1.57,1.57,0,0,0-1.65.19L10.37,12.48H3.12A3.12,3.12,0,0,0,0,15.6V28.08A3.12,3.12,0,0,0,3.12,31.2h7.25L25.54,43.34a1.6,1.6,0,0,0,1,.34,1.58,1.58,0,0,0,1.56-1.56V1.56A1.58,1.58,0,0,0,27.19.15"/><path d="M36,10.81A1.56,1.56,0,0,0,33.78,13a12.43,12.43,0,0,1,0,17.62,1.56,1.56,0,0,0,1.09,2.67,1.52,1.52,0,0,0,1.1-.46,15.54,15.54,0,0,0,0-22"/><path d="M40.37,6.41a1.56,1.56,0,0,0-2.19,2.22,18.61,18.61,0,0,1,0,26.42,1.56,1.56,0,0,0,1.09,2.67,1.52,1.52,0,0,0,1.1-.46,21.74,21.74,0,0,0,0-30.85"/></g></g></svg>