<svg xmlns="http://www.w3.org/2000/svg" viewBox="0 0 121.07 167.59"><defs><style>.cls-1{fill:#f7f1d3;}.cls-2{fill:#664d79;}.cls-3{fill:#471d65;}.cls-4{fill:#e6e6e6;}.cls-5{fill:#79b2ff;}.cls-6{fill:#cee3ff;}.cls-7{fill:#f9f9f9;}.cls-8{fill:#98a1b3;}</style></defs><title>资源 9</title><g id="图层_2" data-name="图层 2"><g id="图层_1-2" data-name="图层 1"><rect class="cls-1" x="9.05" y="156.17" width="112.02" height="5.66"/><rect class="cls-2" x="18.1" y="0.03" width="102.96" height="156.15"/><rect class="cls-3" x="9.05" y="161.83" width="112.02" height="5.66"/><path class="cls-3" d="M9.05,167.49c-1.08.69-4.69-2.16-6.79-5.66A16.53,16.53,0,0,1,0,154.23V9.9A16.14,16.14,0,0,1,2.26,4.78a10.9,10.9,0,0,1,3.4-3.56C6.32.82,7.59.18,13.58,0,15.46,0,17,0,18.1,0c0,109.39,0,153.58,0,154.2a4.38,4.38,0,0,1,0,.81c0,.65,0,1-.18,1.14-.27.35-.86.11-2.08,0H11.31c-1.61,0-2-.26-2.26,0s-.1.84,0,2.27c.06.85,0,.95,0,2.26,0,4.37.75,6.31,0,6.79"/><path class="cls-4" d="M106.7,133.54h-75A4.52,4.52,0,0,1,27.21,129v-44a4.52,4.52,0,0,1,4.52-4.52h75a4.51,4.51,0,0,1,4.51,4.52v44a4.51,4.51,0,0,1-4.51,4.51"/><path class="cls-5" d="M91.84,121.64h10.53v-5.3a5.38,5.38,0,0,0-3.84-5.16l-11.27-3.37H42.5c-2.23,2.78-3.21,4-5.45,6.77l1.54,7.06H91.84Z"/><path class="cls-6" d="M98.53,111.18l-2.66-.8v3.74a2.22,2.22,0,0,0,2.22,2.22h4.28a5.38,5.38,0,0,0-3.84-5.16"/><polygon class="cls-7" points="55.93 107.86 69.72 121.64 78.06 121.64 64.28 107.86 55.93 107.86"/><path class="cls-8" d="M70.94,101.44H63.56a18.59,18.59,0,0,0-14,6.37H87.26l-7.37-4.06a18.55,18.55,0,0,0-9-2.31"/><path class="cls-8" d="M50.6,113.12a6.38,6.38,0,1,1-6.37,6.37,6.38,6.38,0,0,1,6.37-6.37"/><path class="cls-8" d="M85.47,113.12a6.38,6.38,0,1,1-6.37,6.37,6.37,6.37,0,0,1,6.37-6.37"/><path d="M50.6,118.17a1.33,1.33,0,1,0,.94.39,1.31,1.31,0,0,0-.94-.39"/><path d="M85.47,118.17a1.33,1.33,0,0,0-.94.39,1.32,1.32,0,0,0,0,1.87,1.33,1.33,0,0,0,1.88,0,1.32,1.32,0,0,0,0-1.87,1.33,1.33,0,0,0-.94-.39"/><path d="M98.91,109.91l-11.13-3.33-7.25-4a19.88,19.88,0,0,0-9.59-2.47h-1.4a1.33,1.33,0,1,0,0,2.65h1.4a17.25,17.25,0,0,1,8.31,2.14l2.86,1.58H52.88a17.34,17.34,0,0,1,5.21-2.83,1.33,1.33,0,0,0-.85-2.51A20,20,0,0,0,49,106.49H42.5a1.32,1.32,0,0,0-1,.49L36,113.75a1.36,1.36,0,0,0-.27,1.12l1.55,7.06a1.32,1.32,0,0,0,1.29,1h5.15a7.69,7.69,0,0,0,13.73,0H78.6a7.69,7.69,0,0,0,13.73,0h10a1.33,1.33,0,0,0,1.33-1.32v-5.31a6.74,6.74,0,0,0-4.79-6.43m1.9,5.1H98.09a.89.89,0,0,1-.9-.89v-2l1,.28a4.07,4.07,0,0,1,2.66,2.56m-30.54,5.31L59.09,109.14h4.59l11.18,11.18ZM50.6,124.54a5,5,0,1,1,5-5,5,5,0,0,1-5,5m0-12.74a7.7,7.7,0,0,0-7.69,7.7,7.5,7.5,0,0,0,0,.82H39.66l-1.18-5.4,4.66-5.78h12.2l11.17,11.18H58.26a7.5,7.5,0,0,0,0-.82,7.7,7.7,0,0,0-7.7-7.7m34.87,12.74a5,5,0,1,1,5-5,5,5,0,0,1-5,5m7.65-4.22a7.52,7.52,0,0,0,0-.82,7.7,7.7,0,0,0-15.4,0L67.43,109.14H87.07l7.47,2.23v2.75a3.55,3.55,0,0,0,3.55,3.54h3v2.66Z"/><path d="M64.5,102.38a1.33,1.33,0,0,0,0-1.88,1.33,1.33,0,1,0-1.88,1.88,1.33,1.33,0,0,0,1.88,0"/></g></g></svg>