<svg xmlns="http://www.w3.org/2000/svg" viewBox="0 0 122.2 167.59"><defs><style>.cls-1{fill:#f7f1d3;}.cls-2{fill:#2e6166;}.cls-3{fill:#4994a5;}.cls-4{fill:#e5c698;}.cls-5{fill:#f29c1f;}.cls-6{fill:#a56a43;}.cls-7{fill:#e57e25;}.cls-8{fill:#d25627;}.cls-9{fill:#cb8252;}.cls-10{fill:#ff5364;}.cls-11{fill:#f3d55b;}.cls-12{fill:#3b97d3;}.cls-13{fill:#df4d60;}.cls-14{fill:#f0c419;}.cls-15{fill:#2980ba;}</style></defs><title>资源 10</title><g id="图层_2" data-name="图层 2"><g id="图层_1-2" data-name="图层 1"><rect class="cls-1" x="9.05" y="156.17" width="112.02" height="5.66"/><rect class="cls-2" x="9.05" y="161.83" width="112.02" height="5.66"/><path class="cls-2" d="M9.05,167.49c-1.09.69-4.69-2.16-6.79-5.66A16.53,16.53,0,0,1,0,154.23V9.9A16.14,16.14,0,0,1,2.26,4.78a10.9,10.9,0,0,1,3.4-3.56C6.32.82,7.59.18,13.58,0,15.46,0,17,0,18.1,0c0,109.39,0,153.58,0,154.2a4.38,4.38,0,0,1,0,.81c0,.65,0,1-.18,1.14-.27.35-.86.11-2.08,0H11.31c-1.61,0-2-.26-2.26,0s-.1.84,0,2.27c.06.85,0,.95,0,2.26,0,4.37.75,6.31,0,6.79"/><rect class="cls-3" x="17.16" y="0.03" width="105.04" height="156.15"/><path class="cls-4" d="M106.26,131.54H31.31A4.52,4.52,0,0,1,26.78,127V83.07a4.53,4.53,0,0,1,4.53-4.53h75a4.52,4.52,0,0,1,4.52,4.53v44a4.52,4.52,0,0,1-4.52,4.52"/><path class="cls-5" d="M62.64,112.78c1.4-.13,2.86-.2,4.36-.2,10.55,0,19.1,3.38,19.1,7.56S77.55,127.7,67,127.7s-19.1-3.38-19.1-7.56c0-2.94,4.22-5.48,10.38-6.73Z"/><path class="cls-6" d="M70.3,102.18l-7.66,10.6-5.67,8a1.59,1.59,0,0,1-2.59-1.85l3.91-5.48,9.43-13.06Z"/><path class="cls-7" d="M77.31,118.15a.79.79,0,0,1,.79.79.79.79,0,0,1-.79.8.8.8,0,0,1-.8-.8.79.79,0,0,1,.8-.79"/><path class="cls-7" d="M74.92,116.56a.79.79,0,0,1,.8.79.8.8,0,1,1-1.6,0,.79.79,0,0,1,.8-.79"/><path class="cls-7" d="M73.33,118.94a.8.8,0,0,1,0,1.6.8.8,0,0,1,0-1.6"/><path class="cls-8" d="M65.77,119.74a2,2,0,1,1-2,2,2,2,0,0,1,2-2"/><path class="cls-9" d="M82.38,85.09l-2.26,3c-.42-.32-.84-.64-1.28-.95s-.88-.61-1.33-.89l2.28-3A1.6,1.6,0,0,1,82,82.87a1.55,1.55,0,0,1,.65,1,1.58,1.58,0,0,1-.28,1.19"/><path class="cls-10" d="M80.51,87.71c-.41-.33-.83-.65-1.27-1s-.88-.61-1.33-.88c-9.38-6-20.33-5.77-24.95.72l-.47,3a.79.79,0,0,0,.32.78L55,92l2.18,1.56a.82.82,0,0,0,.84,0l2.71-1.43-.47,3a.78.78,0,0,0,.31.77l6.74,4.8,2.59,1.85,6.73,4.8a.83.83,0,0,0,.83.06L80.18,106l-.48,3a.83.83,0,0,0,.33.77l2.2,1.56,2.18,1.56a.8.8,0,0,0,.84.06L88,111.54c4.62-6.49,1.28-16.9-7.45-23.83"/><path class="cls-11" d="M88,111.54,80.18,106c4.85-6.8,4.42-15.42-.94-19.25.44.31.86.63,1.27,1,8.73,6.93,12.07,17.34,7.45,23.83"/><path class="cls-12" d="M80.18,106,60.74,92.14c4.85-6.81,13.13-9.22,18.5-5.39S85,99.2,80.18,106"/><path class="cls-13" d="M60.74,92.14,58,93.57a.82.82,0,0,1-.84,0L55,92l-2.2-1.56a.81.81,0,0,1-.32-.78l.47-3Z"/><path class="cls-14" d="M88,111.54,85.25,113a.82.82,0,0,1-.84-.06l-2.18-1.56L80,109.8a.83.83,0,0,1-.33-.77l.48-3Z"/><path class="cls-15" d="M80.18,106l-2.71,1.44a.82.82,0,0,1-.83-.06l-6.74-4.8-2.58-1.85-6.74-4.8a.78.78,0,0,1-.31-.77l.47-3Z"/><line class="cls-9" x1="80.51" y1="87.71" x2="80.51" y2="87.71"/></g></g></svg>