<svg xmlns="http://www.w3.org/2000/svg" xmlns:xlink="http://www.w3.org/1999/xlink" viewBox="0 0 103 48.92"><defs><style>.cls-1{fill:#cab0cc;}.cls-2{fill:#a863a3;}.cls-3{fill:url(#未命名的渐变);}.cls-4{font-size:16.13px;font-family:Arial-Black, Arial;font-weight:800;}.cls-5{letter-spacing:-0.03em;}.cls-6{letter-spacing:0.03em;}.cls-7{letter-spacing:0em;}</style><linearGradient id="未命名的渐变" x1="4.87" y1="21.77" x2="110.02" y2="21.77" gradientUnits="userSpaceOnUse"><stop offset="0" stop-color="#fff"/><stop offset="1"/></linearGradient></defs><title>资源 28</title><g id="图层_2" data-name="图层 2"><g id="图层_1-2" data-name="图层 1"><rect class="cls-1" width="103" height="45.91"/><rect class="cls-2" y="40.23" width="103" height="8.69"/><path class="cls-3" d="M13.56,14.67h3.56v6.88a5.59,5.59,0,0,1-.32,1.93,4,4,0,0,1-1,1.59,3.84,3.84,0,0,1-1.43,1,7.09,7.09,0,0,1-2.49.38A17.54,17.54,0,0,1,10,26.3a4.93,4.93,0,0,1-1.67-.47,4.23,4.23,0,0,1-1.22-1,3.54,3.54,0,0,1-.76-1.33,6.9,6.9,0,0,1-.34-1.95V14.67H9.62v7a2,2,0,0,0,.52,1.48,2,2,0,0,0,1.45.53A2,2,0,0,0,13,23.2a2,2,0,0,0,.52-1.49Z"/><path class="cls-3" d="M19.27,17.85h3v1.36A4.53,4.53,0,0,1,23.61,18a3.58,3.58,0,0,1,1.67-.36,2.77,2.77,0,0,1,2.09.79,3.47,3.47,0,0,1,.75,2.45v5.32H24.9v-4.6a1.71,1.71,0,0,0-.29-1.12,1,1,0,0,0-.82-.32,1.15,1.15,0,0,0-.95.44,2.56,2.56,0,0,0-.36,1.58v4H19.27Z"/><path class="cls-3" d="M38.84,14.67V26.22h-3V25A3.85,3.85,0,0,1,34.69,26a3.2,3.2,0,0,1-1.55.37,3,3,0,0,1-2.61-1.3,5.42,5.42,0,0,1-.9-3.16,4.54,4.54,0,0,1,1-3.18,3.25,3.25,0,0,1,2.53-1.11,3.7,3.7,0,0,1,1.36.25,3,3,0,0,1,1.08.76v-4ZM35.63,22a2.19,2.19,0,0,0-.42-1.47,1.34,1.34,0,0,0-1.06-.48,1.15,1.15,0,0,0-.93.46,2.45,2.45,0,0,0-.38,1.56,2.34,2.34,0,0,0,.39,1.5,1.19,1.19,0,0,0,1,.48,1.31,1.31,0,0,0,1-.48A2.42,2.42,0,0,0,35.63,22Z"/><path class="cls-3" d="M40.4,22.06a4.2,4.2,0,0,1,1.29-3.16,4.86,4.86,0,0,1,3.49-1.24A4.81,4.81,0,0,1,49,19.12,4.21,4.21,0,0,1,50,22a4.2,4.2,0,0,1-1.28,3.16,4.85,4.85,0,0,1-3.54,1.24,5,5,0,0,1-3.26-1A4.09,4.09,0,0,1,40.4,22.06Zm3.21,0a2.45,2.45,0,0,0,.46,1.65,1.47,1.47,0,0,0,2.27,0A2.57,2.57,0,0,0,46.79,22a2.45,2.45,0,0,0-.45-1.62,1.41,1.41,0,0,0-1.11-.53,1.46,1.46,0,0,0-1.16.54A2.51,2.51,0,0,0,43.61,22.05Z"/><path class="cls-3" d="M56,14.67h3.39l1.22,6.46,1.78-6.46h3.38l1.79,6.46,1.22-6.46h3.37L69.57,26.22h-3.5L64,19l-2,7.27h-3.5Z"/><path class="cls-3" d="M72.27,22.06a4.2,4.2,0,0,1,1.29-3.16,5.61,5.61,0,0,1,7.29.22,4.26,4.26,0,0,1,1,2.89,4.2,4.2,0,0,1-1.28,3.16,4.87,4.87,0,0,1-3.54,1.24,5,5,0,0,1-3.26-1A4.09,4.09,0,0,1,72.27,22.06Zm3.21,0a2.45,2.45,0,0,0,.46,1.65,1.47,1.47,0,0,0,2.27,0A2.57,2.57,0,0,0,78.66,22a2.45,2.45,0,0,0-.45-1.62,1.41,1.41,0,0,0-1.11-.53,1.45,1.45,0,0,0-1.16.54A2.51,2.51,0,0,0,75.48,22.05Z"/><path class="cls-3" d="M83.45,17.85h3v1.37A3.12,3.12,0,0,1,87.35,18a1.86,1.86,0,0,1,1.14-.34A3.43,3.43,0,0,1,90,18.1l-1,2.29a2.51,2.51,0,0,0-.9-.24,1.1,1.1,0,0,0-1,.52,5.3,5.3,0,0,0-.49,2.74v2.81H83.45Z"/><path class="cls-3" d="M91.12,14.67h3.27v6l2.4-2.78h3.94l-3,2.93,3.18,5.44H97.29L95.6,22.86,94.39,24v2.18H91.12Z"/><text class="cls-4" transform="translate(4.87 26.22)">Undo <tspan class="cls-5" x="51.1" y="0">W</tspan><tspan x="66.83" y="0">o</tspan><tspan class="cls-6" x="77.59" y="0">r</tspan><tspan class="cls-7" x="85.28" y="0">k</tspan></text></g></g></svg>