<svg xmlns="http://www.w3.org/2000/svg" viewBox="0 0 67 68"><defs><style>.cls-1{fill:#ccc;}</style></defs><title>资源 2</title><g id="图层_2" data-name="图层 2"><g id="图层_1-2" data-name="图层 1"><path class="cls-1" d="M67,34c0,18.78-15,34-33.5,34S0,52.78,0,34,15,0,33.5,0,67,15.22,67,34"/><path d="M33.42,4.6A29.55,29.55,0,0,0,4.09,34.38,29.55,29.55,0,0,0,33.42,64.15,29.55,29.55,0,0,0,62.76,34.38,29.56,29.56,0,0,0,33.42,4.6m0,8.91a9.85,9.85,0,1,1-9.7,9.84,9.78,9.78,0,0,1,9.7-9.84m0,42.86a21.33,21.33,0,0,1-14-5.25A4.22,4.22,0,0,1,18,47.93,9.85,9.85,0,0,1,27.78,38H39.07a9.84,9.84,0,0,1,9.82,9.93,4.22,4.22,0,0,1-1.45,3.19,21.35,21.35,0,0,1-14,5.25"/></g></g></svg>